/* XPM */
static char *chordTraining_32x32[] = {
/* columns rows colors chars-per-pixel */
"116 104 23 1 ",
"  c black",
". c gray5",
"X c #111111",
"o c gray11",
"O c #222222",
"+ c gray16",
"@ c gray20",
"# c gray22",
"$ c #444444",
"% c #4B4B4B",
"& c #555555",
"* c #585858",
"= c gray40",
"- c #686868",
"; c #777777",
": c #888888",
"> c gray60",
", c #AFAFAF",
"< c #BBBBBB",
"1 c gray80",
"2 c #DDDDDD",
"3 c #EEEEEE",
"4 c white",
/* pixels */
"44444444444444444444444444444444444444444444444444444444444444444444444444444444444444444444444444444444444444444444",
"444444444444444444444<O>44444444444444444444444444444444444444444444444444444444444444444444444444444444444444444444",
"44444444444444444444>   <4444444444444444444444444444444444444444444444444444444444444444444444444444444444444444444",
"4444444444444444444>    O3444444444444444444444444444444444444444444444444444444444444444444444444444444444444444444",
"444444444444444444>      ;444444444444444444444444444444444444444444444444444444444444444444444444444444444444444444",
"444444444444444441X       244444444444444444444444444444444444444444444444444444444444444444444444444444444444444444",
"44444444444444444@        =44444444444444444444444444444444444444444444444444444444444444444444444444444444444444444",
"4444444444444444:          24444444444444444444444444444444444444444444444444444444444444444444444444444444444444444",
"4444444444444443X          ;4444444444444444444444444444444444444444444444444444444444444444444444444444444444444444",
"444444444444444:        O& X3444444444444444444444444444444444444444444444444444444444444444444444444444444444444444",
"444444444444444O       ;42  >444444444444444444444444444444444444444444444444444444444444444444444444444444444444444",
"444444444444441      X<444O &444444444444444444444444444444444444444444444444444444444444444444444444444444444444444",
"44444444444444:     X14444=  344444444444444444444444444444444444444444444444444444444444444444444444444444444444444",
"44444444444444&     144444;  >44444444444444444444444444444444444444444444444444444444444444444444444444444444444444",
"44444444444444@    ;444444;  =44444444444444444444444444444444444444444444444444444444444444444444444444444444444444",
"44444444444444    @4444444;  O44444444444444444444444444444444444444444444444444444444444444444444444444444444444444",
"44444444444444    <4444444;   24444444444444444444444444444444444444444444444444444444444444444444444444444444444444",
"44444444444444   @44444444;   <4444444444444444444444444444444444444444444444444444444444444444444444444444444444444",
"44444444444444   :44444444;   :4444444444444444444444444444444444444444444444444444444444444444444444444444444444444",
"44444444444444   244444444=   ;4444444444444444444444444444444444444444444444444444444444444444444444444444444444444",
"44444444444444  O444444444@   ;4444444444444444444444444444444444444444444444444444444444444444444444444444444444444",
"44444444444444  $444444443    ;4444444444444444444444444444444444444444444444444444444444444444444444444444444444444",
"44444444444444  =44444444,    ;4444444444444444444444444444444444444444444444444444444444444444444444444444444444444",
"44444444444444  ;44444444&    ;4444444444444444444444444444444444444444444444444444444444444444444444444444444444444",
";;;;;;;;;;;;;;O #;;;;;;;-     *;;;;;;;;;;;;;;;;;;;;;;;;;;;;;;;;;;;;;;;;;;;;;;;;;;;;;;;;;;;;;;;;;;;;;;;;;;;;;;;;;;;;;",
"                                                                                                                    ",
"<<<<<<<<<<<<<<% @<<<<<<,.    O<<<<<<<<<<<<<<<<<<<<<<<<<<<<<<<<<<<<<<<<<<<<<<<<<<<<<<<<<<<<<<<<<<<<<<<<<<<<<<<<<<<<<<",
"44444444444444; O444444;     :44444444444444444444444444444444444444444444444444444444444444444444444444444444444444",
"44444444444444<  344441      244444444444444444444444444444444444444444444444444444444444444444444444444444444444444",
"444444444444443  <4444@     &444444444444444444444444444444444444444444444444444444444444444444444444444444444444444",
"444444444444444@ ;444;      <444444444444444444444444444444444444444444444444444444444444444444444444444444444444444",
"444444444444444= $441      $4444444444444444444444444444444444444444443<:;;;;;;,244444444444444444444444444444444444",
"444444444444444>  33X      24444444444444444444444444444444444444442:@   @@      O=<44444444444444444444444444444444",
"4444444444444443  ,$      ;444444444444444444444444444444444444443=    &3444,$      $<444444444444444444444444444444",
"4444444444444444@ X      @34444444444444444444444444444444444444,.    O4444444>       ;44444444444444444444444444444",
"4444444444444444;        14444444444444444444444444444444444444>      >44444444>       $4444444444444444444444444444",
"4444444444444444,       :4444444444444444444444444444444444444<       1444444444$       ;444444444444444444444444444",
"4444444444444441.      =44444444444444444444444444444444444444&       4444444444<        344444444444444444444444444",
"$$$$$$$$$$$$$$#.      .$$$$$$$$$$$$$$$$$$$$$$$$$$$$$$$$$$$$$$$        $$$$$$$$$$$        @$$$$$$$$$$$$$$$$$$$$$$$$$$",
"                                                                                                                    ",
"4444444444444$      X14444444444444444444444444444444444444444&       ;4444444444$       344444444444444444444444444",
"444444444444=       @44444444444444444444444444444444444444444<       X3444444444@      ;444444444444444444444444444",
"44444444444:         344444444444444444444444444444444444444444>       &444444443      $4444444444444444444444444444",
"4444444444,       =  >444444444444444444444444444444444444444444,X      =3444444;     ;44444444444444444444444444444",
"4444444442X      =4@ &44444444444444444444444444444444444444444443=      O>3444:    $<444444444444444444444444444444",
"444444443@      @34; X4444444444444444444444444444444444444444444442:@      o$   O=<44444444444444444444444444444444",
"44444444;      O344<  1444444444444444444444444444444444444444444444443<:;;;;;;,244444444444444444444444444444444444",
"4444444<      X14444X ;444444444444444444444444444444444444444444444444444444444444444444444444444444444444444444444",
"4444443O      ,44444& $444444444444444444444444444444444444444444444444444444444444444444444444444444444444444444444",
"444444;      ;444444:  444444444444444444444444444444444444444444444444444444444444444444444444444444444444444444444",
"444442      @44444441  <44444444444444444444444444444444444444444444444444444444444444444444444444444444444444444444",
"44444=     X244444444X ;44444444444444444444444444444444444444444444444444444444444444444444444444444444444444444444",
"$$$$#      O$$$$$$$$$X .Oo+#$$$$$$$$$$$$$$$$$$$$$$$$$$$$$$$$$$$$$$$$$$$$$$$$$$$$$$$$$$$$$$$$$$$@OOOoOOO+#$$$$$$$$$$$",
"$$$$O     X$$$$$$$#O.        o#$$$$$$$$$$$$$$$$$$$$$$$$$$$$$$$$$$$$$$$$$$$$$$$$$$$$$$$$$$$$#O.   ..      .o@$$$$$$$$",
"4444O     1444444;X            -3444444444444444444444444444444444444444444444444444444443=    &3444,$      $<444444",
"4442     =444443$               X<444444444444444444444444444444444444444444444444444444,X    O4444444>       ;44444",
"444>     244444$                  >4444444444444444444444444444444444444444444444444444>      >44444444>       $4444",
"444;    $44444;                    144444444444444444444444444444444444444444444444444<       1444444444$       ;444",
"444$    >44442       O@  @O        X34444444444444444444444444444444444444444444444444&       4444444444<        344",
"444$    44444=     =242  ,41=X      =4444444444444444444444444444444443<:;;;;;;,244444        34444444444X       <44",
"444O   &44444X   X14444X ;4442$      2444444444444444444444444444442:@   @@      O=<44        <4444444444$       <44",
"444O   ;4444<   X144444& $44444=     =4444444444444444444444444443=    &3444,$      $<&       ;4444444444$       344",
"444$   <4444>   ;444444; X444444&    X44444444444444444444444444,.    O4444444>       *       X3444444444@      ;444",
"444$   <4444;   2444444<  2444443X    1444444444444444444444444>      >44444444>       +       &444444443      $4444",
"444;   34444;   44444443  <444444>    :44444444444444444444444<       1444444444$       &.      -3444444;     ;44444",
"444:   44444<  O44444444O ;4444443X   ;44444444444444444444444&       4444444444<        2=      O>3444:    $<444444",
"                                                                                                                    ",
"$$$$.  @$$$$$.  +$$$$$$$O .$$$$$$$O   O$$$$$$$$$$$$$$$$$$$$$$$        @$$$$$$$$$$X       @$$$$$@OoOOOoO+#$$$$$$$$$$$",
"4444;  ;44444>  $4444444,  4444444<   ;44444444444444444444444&       ;4444444444$       344444444444444444444444444",
"44441  @444444@  >4444441  <444444<   ,44444444444444444444444<       X3444444444@      ;444444444444444444444444444",
"44444$  <444441X  >444444  ,444444:   2444444444444444444444444>       &444444443      $4444444444444444444444444444",
"44444<  $4444441   ;44444@ ;444444=  O44444444444444444444444444,X      =3444444;     ;44444444444444444444444444444",
"444444&  ,4444441X  =4444& &444444X  :4444444444444444444444444443=      O>3444:    $<444444444444444444444444444444",
"4444443X X14444443= :4444; @44444>  X3444444444444444444444444444442:@      Xo   O=<44444444444444444444444444444444",
"4444444<  .14444444444444>  44443X  >4444444444444444444444444444442:@   Xo      O=<44444444444444444444444444444444",
"44444444>  X1444444444444<  3444&  &444444444444444444444444444443=    &3444,$      $<444444444444444444444444444444",
"444444444>   :444444444443  <43=  @34444444444444444444444444444,.    O4444444>       ;44444444444444444444444444444",
"4444444444>   @>4444444444  ><@  @34444444444444444444444444444>      >44444444>       $4444444444444444444444444444",
"444444444441@   O;,3444441O X   =44444444444444444444444444444<       1444444444$       ;444444444444444444444444444",
"4444444444444>O               $<444444444444444444444444444444&       4444444444<        344444444444444444444444444",
"                                                                                                                    ",
";;;;;;;;;;;;;;;;;;*&###%&=# O;;;;;;;;;;;;;;;;;;;;;;;;;;;;;;;;;        *;;;;;;;;;;O       *;;;;;;;;;;;;;;;;;;;;;;;;;;",
"44444444444444444444444444; $444444444444444444444444444444444&       ;4444444444$       344444444444444444444444444",
"44444444444444444444444444; @444444444444444444444444444444444<       X3444444444@      ;444444444444444444444444444",
"44444444444444444444444444;  4444444444444444444444444444444444>       &444444443      $4444444444444444444444444444",
"44444444442>;;144444444444;  44444444444444444444444444444444444,.      =3444444;     ;44444444444444444444444444444",
"444444443=     &3444444444;  4444444444444444444444444444444444443=      O>3444:    $<444444444444444444444444444444",
"44444443@       $444444444;  444444444444444444444444444444444444442:@      O$   O=<44444444444444444444444444444444",
"4444444=         >44444444; O444444444444444444444444444444444444444443<:;;;;;;,244444444444444444444444444444444444",
"4444442          $44444444; $444444444444444444444444444444444444444444444444444444444444444444444444444444444444444",
"444444>           44444444= $444444444444444444444444444444444444444444444444444444444444444444444444444444444444444",
"444444:           44444444@ ;444444444444444444444444444444444444444444444444444444444444444444444444444444444444444",
"444444<          @44444442  ,444444444444444444444444444444444444444444444444444444444444444444444444444444444444444",
"4444442          ;4444444:  3444444444444444444444444444444444444444444444444444444444444444444444444444444444444444",
"4444444O        @44444444O =4444444444444444444444444444444444444444444444444444444444444444444444444444444444444444",
"4444444;       =34444444;  <4444444444444444444444444444444444444444444444444444444444444444444444444444444444444444",
"44444443X  ;:>2444444441  &44444444444444444444444444444444444444444444444444444444444444444444444444444444444444444",
"44444444>   <4444444441X X344444444444444444444444444444444444444444444444444444444444444444444444444444444444444444",
"444444444=   ;3444444:X X1444444444444444444444444444444444444444444444444444444444444444444444444444444444444444444",
"4444444444;   X=:<:=O  X14444444444444444444444444444444444444444444444444444444444444444444444444444444444444444444",
"44444444444<O         =344444444444444444444444444444444444444444444444444444444444444444444444444444444444444444444",
"4444444444444,=O   @;24444444444444444444444444444444444444444444444444444444444444444444444444444444444444444444444",
"44444444444444444444444444444444444444444444444444444444444444444444444444444444444444444444444444444444444444444444",
"44444444444444444444444444444444444444444444444444444444444444444444444444444444444444444444444444444444444444444444"
};
